<svg id="visual" viewBox="0 0 1920 1080" width="1920" height="1080" xmlns="http://www.w3.org/2000/svg" xmlns:xlink="http://www.w3.org/1999/xlink" version="1.1"><path d="M0 174L160 152.3C320 130.7 640 87.3 960 117.8C1280 148.3 1600 252.7 1760 304.8L1920 357L1920 0L1760 0C1600 0 1280 0 960 0C640 0 320 0 160 0L0 0Z" fill="#e11d48"></path><path d="M0 962L160 906.2C320 850.3 640 738.7 960 742.3C1280 746 1600 865 1760 924.5L1920 984L1920 355L1760 302.8C1600 250.7 1280 146.3 960 115.8C640 85.3 320 128.7 160 150.3L0 172Z" fill="#f4f4f5"></path><path d="M0 1081L160 1081C320 1081 640 1081 960 1081C1280 1081 1600 1081 1760 1081L1920 1081L1920 982L1760 922.5C1600 863 1280 744 960 740.3C640 736.7 320 848.3 160 904.2L0 960Z" fill="#e11d48"></path></svg>