<svg id="visual" viewBox="0 0 900 600" width="900" height="600" xmlns="http://www.w3.org/2000/svg" xmlns:xlink="http://www.w3.org/1999/xlink" version="1.1"><path d="M0 531L39 531L39 492L78 492L78 439L117 439L117 481L157 481L157 516L196 516L196 477L235 477L235 532L274 532L274 525L313 525L313 454L352 454L352 464L391 464L391 436L430 436L430 481L470 481L470 460L509 460L509 506L548 506L548 541L587 541L587 465L626 465L626 505L665 505L665 449L704 449L704 527L743 527L743 538L783 538L783 516L822 516L822 516L861 516L861 453L900 453L900 518L900 601L900 601L861 601L861 601L822 601L822 601L783 601L783 601L743 601L743 601L704 601L704 601L665 601L665 601L626 601L626 601L587 601L587 601L548 601L548 601L509 601L509 601L470 601L470 601L430 601L430 601L391 601L391 601L352 601L352 601L313 601L313 601L274 601L274 601L235 601L235 601L196 601L196 601L157 601L157 601L117 601L117 601L78 601L78 601L39 601L39 601L0 601Z" fill="#52be74"></path><path d="M0 564L39 564L39 572L78 572L78 498L117 498L117 583L157 583L157 505L196 505L196 547L235 547L235 549L274 549L274 552L313 552L313 584L352 584L352 493L391 493L391 579L430 579L430 535L470 535L470 573L509 573L509 554L548 554L548 525L587 525L587 541L626 541L626 499L665 499L665 548L704 548L704 569L743 569L743 514L783 514L783 532L822 532L822 515L861 515L861 526L900 526L900 557L900 601L900 601L861 601L861 601L822 601L822 601L783 601L783 601L743 601L743 601L704 601L704 601L665 601L665 601L626 601L626 601L587 601L587 601L548 601L548 601L509 601L509 601L470 601L470 601L430 601L430 601L391 601L391 601L352 601L352 601L313 601L313 601L274 601L274 601L235 601L235 601L196 601L196 601L157 601L157 601L117 601L117 601L78 601L78 601L39 601L39 601L0 601Z" fill="#0d7838"></path></svg>