<svg id="visual" viewBox="0 0 900 600" width="900" height="600" xmlns="http://www.w3.org/2000/svg" xmlns:xlink="http://www.w3.org/1999/xlink" version="1.1"><path d="M0 455L30 463.8C60 472.7 120 490.3 180 481C240 471.7 300 435.3 360 432.5C420 429.7 480 460.3 540 459C600 457.7 660 424.3 720 405.5C780 386.7 840 382.3 870 380.2L900 378L900 601L870 601C840 601 780 601 720 601C660 601 600 601 540 601C480 601 420 601 360 601C300 601 240 601 180 601C120 601 60 601 30 601L0 601Z" fill="#52be74"></path><path d="M0 515L30 519.8C60 524.7 120 534.3 180 536.7C240 539 300 534 360 529C420 524 480 519 540 513C600 507 660 500 720 496.3C780 492.7 840 492.3 870 492.2L900 492L900 601L870 601C840 601 780 601 720 601C660 601 600 601 540 601C480 601 420 601 360 601C300 601 240 601 180 601C120 601 60 601 30 601L0 601Z" fill="#0d7838"></path></svg>