<svg id="visual" viewBox="0 0 900 600" width="900" height="600" xmlns="http://www.w3.org/2000/svg" xmlns:xlink="http://www.w3.org/1999/xlink" version="1.1"><rect x="0" y="0" width="900" height="600" fill="#fff"></rect><path d="M0 453L37.5 435.5C75 418 150 383 225 390C300 397 375 446 450 461.8C525 477.7 600 460.3 675 454.3C750 448.3 825 453.7 862.5 456.3L900 459L900 601L862.5 601C825 601 750 601 675 601C600 601 525 601 450 601C375 601 300 601 225 601C150 601 75 601 37.5 601L0 601Z" fill="#52be74"></path><path d="M0 475L37.5 471.3C75 467.7 150 460.3 225 469.8C300 479.3 375 505.7 450 517.2C525 528.7 600 525.3 675 519.5C750 513.7 825 505.3 862.5 501.2L900 497L900 601L862.5 601C825 601 750 601 675 601C600 601 525 601 450 601C375 601 300 601 225 601C150 601 75 601 37.5 601L0 601Z" fill="#0d7838"></path></svg>