<svg id="visual" viewBox="0 0 1920 1080" width="1920" height="1080" xmlns="http://www.w3.org/2000/svg" xmlns:xlink="http://www.w3.org/1999/xlink" version="1.1"><rect x="0" y="0" width="1920" height="1080" fill="#fff"></rect><path d="M0 664L160 666.3C320 668.7 640 673.3 960 699.2C1280 725 1600 772 1760 795.5L1920 819L1920 1081L1760 1081C1600 1081 1280 1081 960 1081C640 1081 320 1081 160 1081L0 1081Z" fill="#f4f4f5"></path><path d="M0 964L160 965.3C320 966.7 640 969.3 960 944.5C1280 919.7 1600 867.3 1760 841.2L1920 815L1920 1081L1760 1081C1600 1081 1280 1081 960 1081C640 1081 320 1081 160 1081L0 1081Z" fill="#e11d48"></path></svg>