<svg id="visual" viewBox="0 0 900 600" width="900" height="600" xmlns="http://www.w3.org/2000/svg" xmlns:xlink="http://www.w3.org/1999/xlink" version="1.1"><rect x="0" y="0" width="900" height="600" fill="#fff"></rect><path d="M0 412L37.5 399.7C75 387.3 150 362.7 225 349.2C300 335.7 375 333.3 450 342.3C525 351.3 600 371.7 675 371.3C750 371 825 350 862.5 339.5L900 329L900 601L862.5 601C825 601 750 601 675 601C600 601 525 601 450 601C375 601 300 601 225 601C150 601 75 601 37.5 601L0 601Z" fill="#52be74"></path><path d="M0 466L37.5 467.8C75 469.7 150 473.3 225 485.3C300 497.3 375 517.7 450 524.5C525 531.3 600 524.7 675 516.8C750 509 825 500 862.5 495.5L900 491L900 601L862.5 601C825 601 750 601 675 601C600 601 525 601 450 601C375 601 300 601 225 601C150 601 75 601 37.5 601L0 601Z" fill="#0d7838"></path></svg>