<svg id="visual" viewBox="0 0 1920 1080" width="1920" height="1080" xmlns="http://www.w3.org/2000/svg" xmlns:xlink="http://www.w3.org/1999/xlink" version="1.1"><rect x="0" y="0" width="1920" height="1080" fill="#fff"></rect><path d="M0 257L160 286C320 315 640 373 960 399.2C1280 425.3 1600 419.7 1760 416.8L1920 414L1920 0L1760 0C1600 0 1280 0 960 0C640 0 320 0 160 0L0 0Z" fill="#f4f4f5"></path><path d="M0 160L160 149.5C320 139 640 118 960 119.7C1280 121.3 1600 145.7 1760 157.8L1920 170L1920 0L1760 0C1600 0 1280 0 960 0C640 0 320 0 160 0L0 0Z" fill="#e11d48"></path></svg>