<svg id="visual" viewBox="0 0 1920 1080" width="1920" height="1080" xmlns="http://www.w3.org/2000/svg" xmlns:xlink="http://www.w3.org/1999/xlink" version="1.1"><rect x="0" y="0" width="1920" height="1080" fill="#fff"></rect><path d="M0 825L80 829.7C160 834.3 320 843.7 480 835.7C640 827.7 800 802.3 960 793.3C1120 784.3 1280 791.7 1440 796.5C1600 801.3 1760 803.7 1840 804.8L1920 806L1920 0L1840 0C1760 0 1600 0 1440 0C1280 0 1120 0 960 0C800 0 640 0 480 0C320 0 160 0 80 0L0 0Z" fill="#f4f4f5"></path><path d="M0 661L80 650C160 639 320 617 480 645.2C640 673.3 800 751.7 960 785C1120 818.3 1280 806.7 1440 765.8C1600 725 1760 655 1840 620L1920 585L1920 0L1840 0C1760 0 1600 0 1440 0C1280 0 1120 0 960 0C800 0 640 0 480 0C320 0 160 0 80 0L0 0Z" fill="#e0cbed"></path><path d="M0 471L80 460.8C160 450.7 320 430.3 480 423.5C640 416.7 800 423.3 960 454C1120 484.7 1280 539.3 1440 558.7C1600 578 1760 562 1840 554L1920 546L1920 0L1840 0C1760 0 1600 0 1440 0C1280 0 1120 0 960 0C800 0 640 0 480 0C320 0 160 0 80 0L0 0Z" fill="#e49bcf"></path><path d="M0 322L80 325.8C160 329.7 320 337.3 480 327.7C640 318 800 291 960 284.8C1120 278.7 1280 293.3 1440 298.8C1600 304.3 1760 300.7 1840 298.8L1920 297L1920 0L1840 0C1760 0 1600 0 1440 0C1280 0 1120 0 960 0C800 0 640 0 480 0C320 0 160 0 80 0L0 0Z" fill="#eb6396"></path><path d="M0 237L80 248.8C160 260.7 320 284.3 480 265C640 245.7 800 183.3 960 173.2C1120 163 1280 205 1440 227C1600 249 1760 251 1840 252L1920 253L1920 0L1840 0C1760 0 1600 0 1440 0C1280 0 1120 0 960 0C800 0 640 0 480 0C320 0 160 0 80 0L0 0Z" fill="#e11d48"></path></svg>