<svg id="visual" viewBox="0 0 900 600" width="900" height="600" xmlns="http://www.w3.org/2000/svg" xmlns:xlink="http://www.w3.org/1999/xlink" version="1.1"><path d="M0 380L39 380L39 169L78 169L78 349L117 349L117 318L157 318L157 127L196 127L196 256L235 256L235 385L274 385L274 197L313 197L313 303L352 303L352 170L391 170L391 145L430 145L430 186L470 186L470 128L509 128L509 277L548 277L548 264L587 264L587 378L626 378L626 281L665 281L665 287L704 287L704 129L743 129L743 240L783 240L783 332L822 332L822 296L861 296L861 333L900 333L900 374L900 0L900 0L861 0L861 0L822 0L822 0L783 0L783 0L743 0L743 0L704 0L704 0L665 0L665 0L626 0L626 0L587 0L587 0L548 0L548 0L509 0L509 0L470 0L470 0L430 0L430 0L391 0L391 0L352 0L352 0L313 0L313 0L274 0L274 0L235 0L235 0L196 0L196 0L157 0L157 0L117 0L117 0L78 0L78 0L39 0L39 0L0 0Z" fill="#52be74"></path><path d="M0 235L39 235L39 59L78 59L78 227L117 227L117 229L157 229L157 47L196 47L196 175L235 175L235 89L274 89L274 69L313 69L313 219L352 219L352 209L391 209L391 59L430 59L430 129L470 129L470 209L509 209L509 31L548 31L548 206L587 206L587 142L626 142L626 170L665 170L665 142L704 142L704 103L743 103L743 160L783 160L783 142L822 142L822 110L861 110L861 218L900 218L900 32L900 0L900 0L861 0L861 0L822 0L822 0L783 0L783 0L743 0L743 0L704 0L704 0L665 0L665 0L626 0L626 0L587 0L587 0L548 0L548 0L509 0L509 0L470 0L470 0L430 0L430 0L391 0L391 0L352 0L352 0L313 0L313 0L274 0L274 0L235 0L235 0L196 0L196 0L157 0L157 0L117 0L117 0L78 0L78 0L39 0L39 0L0 0Z" fill="#0d7838"></path></svg>