<svg id="visual" viewBox="0 0 1920 1080" width="1920" height="1080" xmlns="http://www.w3.org/2000/svg" xmlns:xlink="http://www.w3.org/1999/xlink" version="1.1"><rect x="0" y="0" width="1920" height="1080" fill="#f4f4f5"></rect><defs><linearGradient id="grad1_0" x1="43.8%" y1="100%" x2="100%" y2="0%"><stop offset="14.444444444444446%" stop-color="#f4f4f5" stop-opacity="1"></stop><stop offset="85.55555555555554%" stop-color="#f4f4f5" stop-opacity="1"></stop></linearGradient></defs><defs><linearGradient id="grad2_0" x1="0%" y1="100%" x2="56.3%" y2="0%"><stop offset="14.444444444444446%" stop-color="#f4f4f5" stop-opacity="1"></stop><stop offset="85.55555555555554%" stop-color="#f4f4f5" stop-opacity="1"></stop></linearGradient></defs><g transform="translate(1920, 1080)"><path d="M-432 0C-367.7 -44.5 -303.4 -89 -275.4 -159C-247.4 -229 -255.8 -324.4 -216 -374.1C-176.2 -423.9 -88.1 -427.9 0 -432L0 0Z" fill="#E11D48"></path></g><g transform="translate(0, 0)"><path d="M432 0C325.6 20.3 219.3 40.5 196.6 113.5C173.9 186.5 234.8 312.2 216 374.1C197.2 436 98.6 434 0 432L0 0Z" fill="#E11D48"></path></g></svg>