<svg id="visual" viewBox="0 0 900 600" width="900" height="600" xmlns="http://www.w3.org/2000/svg" xmlns:xlink="http://www.w3.org/1999/xlink" version="1.1"><path d="M0 558L50 558L50 547L100 547L100 454L150 454L150 564L200 564L200 461L250 461L250 307L300 307L300 375L350 375L350 505L400 505L400 491L450 491L450 387L500 387L500 322L550 322L550 386L600 386L600 547L650 547L650 473L700 473L700 484L750 484L750 375L800 375L800 538L850 538L850 540L900 540L900 394L900 0L900 0L850 0L850 0L800 0L800 0L750 0L750 0L700 0L700 0L650 0L650 0L600 0L600 0L550 0L550 0L500 0L500 0L450 0L450 0L400 0L400 0L350 0L350 0L300 0L300 0L250 0L250 0L200 0L200 0L150 0L150 0L100 0L100 0L50 0L50 0L0 0Z" fill="#52be74"></path><path d="M0 231L50 231L50 386L100 386L100 216L150 216L150 184L200 184L200 221L250 221L250 251L300 251L300 195L350 195L350 189L400 189L400 310L450 310L450 279L500 279L500 244L550 244L550 311L600 311L600 194L650 194L650 268L700 268L700 274L750 274L750 212L800 212L800 291L850 291L850 341L900 341L900 328L900 0L900 0L850 0L850 0L800 0L800 0L750 0L750 0L700 0L700 0L650 0L650 0L600 0L600 0L550 0L550 0L500 0L500 0L450 0L450 0L400 0L400 0L350 0L350 0L300 0L300 0L250 0L250 0L200 0L200 0L150 0L150 0L100 0L100 0L50 0L50 0L0 0Z" fill="#16a34a"></path><path d="M0 129L50 129L50 104L100 104L100 89L150 89L150 269L200 269L200 165L250 165L250 35L300 35L300 42L350 42L350 187L400 187L400 87L450 87L450 34L500 34L500 60L550 60L550 194L600 194L600 237L650 237L650 48L700 48L700 221L750 221L750 249L800 249L800 241L850 241L850 153L900 153L900 37L900 0L900 0L850 0L850 0L800 0L800 0L750 0L750 0L700 0L700 0L650 0L650 0L600 0L600 0L550 0L550 0L500 0L500 0L450 0L450 0L400 0L400 0L350 0L350 0L300 0L300 0L250 0L250 0L200 0L200 0L150 0L150 0L100 0L100 0L50 0L50 0L0 0Z" fill="#0d7838"></path></svg>